<svg xmlns="http://www.w3.org/2000/svg" xmlns:xlink="http://www.w3.org/1999/xlink" width="79.748" height="80.496" viewBox="0 0 79.748 80.496">
  <defs>
    <linearGradient id="linear-gradient" y1="0.5" x2="1" y2="0.5" gradientUnits="objectBoundingBox">
      <stop offset="0" stop-color="#67d5d7"/>
      <stop offset="1" stop-color="#1cc3cb"/>
    </linearGradient>
  </defs>
  <path id="Path_1662" data-name="Path 1662" d="M-2463.727,3000.065a6.958,6.958,0,0,1,5.226,2.1,7.266,7.266,0,0,1,2.1,5.362,7.212,7.212,0,0,1-2.1,5.43,7.25,7.25,0,0,1-5.362,2.036h-25.18v25.452a7.161,7.161,0,0,1-2.036,5.293,7.336,7.336,0,0,1-5.43,2.037,7.269,7.269,0,0,1-5.362-2.1,6.958,6.958,0,0,1-2.1-5.226V3015h-24.84a7.217,7.217,0,0,1-5.226-2.036,7.346,7.346,0,0,1-2.1-5.43,7.209,7.209,0,0,1,2.1-5.43,7.39,7.39,0,0,1,5.361-2.036h24.7v-25.316a7.393,7.393,0,0,1,2.037-5.362,7.351,7.351,0,0,1,5.429-2.1,7.27,7.27,0,0,1,5.362,2.1,7.1,7.1,0,0,1,2.1,5.227v25.451Z" transform="translate(2536.145 -2967.283)" fill="url(#linear-gradient)"/>
</svg>
